# xmcd
#
# Track frame offsets:
#	150
#	18596
#	34180
#	54113
#	72228
#	88016
#	106215
#	119866
#	134338
#	148459
#	170284
#	187519
#	201620
#
# Disc length: 2897 seconds
#
# Revision: 0
# Processed by: cddbd v1.5.2PL0 Copyright (c) Steve Scherf et al.
# Submitted via: dBpowerAMP V4.0
#
DISCID=be0b4f0d
DTITLE=Maren Morris - All That It Takes
DYEAR=2007
DGENRE=Country
TTITLE0=Don`t Stay Away
TTITLE1=Dangerous
TTITLE2=Down On My Knees
TTITLE3=Me and the Moon
TTITLE4=Goodbye
TTITLE5=Can`t Do This Alone
TTITLE6=What You Need
TTITLE7=Oh Marie
TTITLE8=All That it Takes
TTITLE9=Here I Am
TTITLE10=Fragile
TTITLE11=Love That Was Never There
TTITLE12=Sunkissed Days
EXTD=
EXTT0=
EXTT1=
EXTT2=
EXTT3=
EXTT4=
EXTT5=
EXTT6=
EXTT7=
EXTT8=
EXTT9=
EXTT10=
EXTT11=
EXTT12=
PLAYORDER=
